<svg width="134" height="20" viewBox="0 0 134 20" fill="none" xmlns="http://www.w3.org/2000/svg">
<path d="M25.9847 6.21027H34.3379V9.33985H25.9847V6.21027ZM32.0311 18.4352H28.2915V2.42054H32.0311V18.4352Z" fill="#172554"/>
<path d="M43.8861 6.21027V9.7555H42.6963C41.6278 9.7555 40.786 10.0163 40.1709 10.5379C39.5719 11.0595 39.2724 11.9234 39.2724 13.1296V18.4352H35.5329V6.23472H39.0539L39.3453 8.85085H39.0053C39.1672 8.03586 39.5314 7.36756 40.098 6.84596C40.6808 6.30807 41.4659 6.03912 42.4534 6.03912C42.6801 6.03912 42.9067 6.05542 43.1334 6.08802C43.3762 6.10432 43.6271 6.14507 43.8861 6.21027Z" fill="#172554"/>
<path d="M53.3533 6.21027H57.0928V18.4352H53.5719L53.329 17.066C52.9567 17.5713 52.4225 17.9788 51.7264 18.2885C51.0465 18.5982 50.3423 18.7531 49.6138 18.7531C48.2378 18.7531 47.145 18.3211 46.3356 17.4572C45.5424 16.577 45.1458 15.3871 45.1458 13.8875V6.21027H48.8853V12.5183C48.8853 13.5126 49.0634 14.2461 49.4195 14.7188C49.7757 15.1752 50.3342 15.4034 51.095 15.4034C51.9044 15.4034 52.4791 15.1834 52.8191 14.7433C53.1752 14.2869 53.3533 13.5615 53.3533 12.5672V6.21027Z" fill="#172554"/>
<path d="M58.302 14.5721H61.8473C61.8797 14.9959 62.0496 15.3301 62.3572 15.5746C62.6648 15.8191 63.1019 15.9413 63.6685 15.9413C64.2513 15.9413 64.6803 15.8435 64.9555 15.6479C65.2307 15.4523 65.3683 15.1997 65.3683 14.89C65.3683 14.7107 65.2954 14.5314 65.1497 14.3521C65.0202 14.1728 64.7288 14.0342 64.2756 13.9364L62.0416 13.4474C60.9246 13.2029 60.0909 12.8117 59.5404 12.2738C58.99 11.7196 58.7148 10.9046 58.7148 9.82885C58.7148 8.98125 58.9334 8.26406 59.3705 7.67726C59.8237 7.07416 60.4308 6.61777 61.1917 6.30807C61.9525 5.98207 62.8186 5.81907 63.7899 5.81907C64.7288 5.81907 65.5544 5.99022 66.2667 6.33252C66.9952 6.67482 67.5618 7.15566 67.9665 7.77506C68.3712 8.39446 68.5736 9.1198 68.5736 9.9511H65.0283C65.0283 9.5273 64.9069 9.19315 64.6641 8.94865C64.4213 8.68786 64.0732 8.55746 63.6199 8.55746C63.199 8.55746 62.8591 8.66341 62.6001 8.8753C62.3572 9.0709 62.2358 9.3317 62.2358 9.6577C62.2358 10.1793 62.6729 10.5379 63.5471 10.7335L65.8054 11.2225C66.809 11.4344 67.5699 11.8011 68.0879 12.3227C68.6221 12.828 68.8893 13.5697 68.8893 14.5477C68.8893 15.4116 68.6626 16.1614 68.2093 16.7971C67.7561 17.4328 67.1247 17.9218 66.3153 18.2641C65.5059 18.5901 64.575 18.7531 63.5228 18.7531C61.9201 18.7531 60.6494 18.37 59.7104 17.6039C58.7715 16.8215 58.302 15.8109 58.302 14.5721Z" fill="#172554"/>
<path d="M69.2163 6.21027H77.5695V9.33985H69.2163V6.21027ZM75.2627 18.4352H71.5232V2.42054H75.2627V18.4352Z" fill="#172554"/>
<path d="M84.2795 18.7531C83.0654 18.7531 81.9807 18.476 81.0256 17.9218C80.0867 17.3676 79.342 16.6096 78.7916 15.6479C78.2574 14.6699 77.9903 13.5534 77.9903 12.2983C77.9903 11.0269 78.2493 9.91035 78.7674 8.94865C79.3016 7.97066 80.0381 7.20456 80.9771 6.65037C81.916 6.09617 82.9925 5.81907 84.2067 5.81907C85.4855 5.81907 86.5864 6.08802 87.5091 6.62592C88.4318 7.14751 89.1441 7.89731 89.646 8.8753C90.1478 9.837 90.3987 10.9861 90.3987 12.3227V13.2763L79.9572 13.3252L80.0058 11.0024H86.6835C86.6835 10.3504 86.4649 9.837 86.0279 9.4621C85.5908 9.0709 84.9918 8.8753 84.2309 8.8753C83.5996 8.8753 83.0816 8.99755 82.6769 9.24205C82.2883 9.48655 81.9969 9.8696 81.8027 10.3912C81.6084 10.8965 81.5113 11.5485 81.5113 12.3472C81.5113 13.4882 81.7379 14.3358 82.1912 14.89C82.6607 15.4279 83.3811 15.6968 84.3524 15.6968C85.0646 15.6968 85.6555 15.5746 86.125 15.3301C86.5944 15.0856 86.8939 14.7433 87.0234 14.3032H90.4473C90.2368 15.6561 89.5731 16.74 88.4561 17.555C87.3391 18.3537 85.9469 18.7531 84.2795 18.7531Z" fill="#172554"/>
<path d="M97.2269 18.7531C96.0613 18.7531 95.0495 18.4923 94.1916 17.9707C93.3336 17.4491 92.6618 16.7156 92.1761 15.7702C91.7066 14.8085 91.4719 13.6838 91.4719 12.3961C91.4719 11.0921 91.7147 9.9511 92.2004 8.9731C92.686 7.97881 93.374 7.20456 94.2644 6.65037C95.171 6.09617 96.2394 5.81907 97.4697 5.81907C98.2306 5.81907 98.9348 5.95762 99.5823 6.23472C100.246 6.51182 100.756 6.87856 101.112 7.33496V0H104.852V18.4352H101.331L101.136 16.8704C100.813 17.4246 100.295 17.881 99.5823 18.2396C98.8862 18.5819 98.1011 18.7531 97.2269 18.7531ZM98.1253 15.3056C98.7081 15.3056 99.2181 15.1834 99.6552 14.9389C100.108 14.6781 100.456 14.3195 100.699 13.8631C100.958 13.3904 101.088 12.8525 101.088 12.2494C101.088 11.63 100.958 11.0921 100.699 10.6357C100.456 10.1793 100.108 9.82885 99.6552 9.58435C99.2181 9.32355 98.7081 9.19315 98.1253 9.19315C97.5426 9.19315 97.0326 9.32355 96.5955 9.58435C96.1585 9.84515 95.8185 10.2037 95.5757 10.6601C95.349 11.1165 95.2357 11.6463 95.2357 12.2494C95.2357 12.8525 95.349 13.3822 95.5757 13.8386C95.8185 14.295 96.1585 14.6536 96.5955 14.9144C97.0326 15.1752 97.5426 15.3056 98.1253 15.3056Z" fill="#172554"/>
<path d="M111.569 0.342298V18.4352H107.636V0.342298H111.569Z" fill="#092452"/>
<path d="M131.442 9.3643C131.442 11.2062 131.07 12.8362 130.325 14.2543C129.581 15.6561 128.545 16.7563 127.217 17.555C125.89 18.3374 124.352 18.7286 122.604 18.7286C120.871 18.7286 119.342 18.3374 118.014 17.555C116.703 16.7563 115.675 15.6561 114.93 14.2543C114.202 12.8525 113.838 11.2306 113.838 9.38875C113.838 7.54686 114.21 5.92502 114.955 4.52323C115.699 3.10513 116.727 2.00489 118.038 1.22249C119.366 0.423797 120.896 0.0244496 122.628 0.0244496C124.376 0.0244496 125.906 0.423797 127.217 1.22249C128.545 2.00489 129.581 3.09698 130.325 4.49878C131.07 5.90057 131.442 7.52241 131.442 9.3643ZM127.29 9.3643C127.29 8.20701 127.104 7.22086 126.732 6.40587C126.359 5.57457 125.825 4.93887 125.129 4.49878C124.449 4.05868 123.623 3.83863 122.652 3.83863C121.681 3.83863 120.847 4.05868 120.151 4.49878C119.455 4.93887 118.921 5.57457 118.548 6.40587C118.176 7.22086 117.99 8.20701 117.99 9.3643C117.99 10.5216 118.176 11.5159 118.548 12.3472C118.921 13.1785 119.455 13.8142 120.151 14.2543C120.847 14.6944 121.681 14.9144 122.652 14.9144C123.623 14.9144 124.449 14.6944 125.129 14.2543C125.825 13.7979 126.359 13.154 126.732 12.3227C127.104 11.4914 127.29 10.5053 127.29 9.3643ZM128.917 20L121.875 11.9804L124.352 9.77995L131.394 17.7995L128.917 20Z" fill="#092452"/>
<path d="M0 1.16862H3.6971V5.36282H0V1.16862Z" fill="#2563EB"/>
<path d="M19.1593 5.36282H21.1067V9.54088H19.1593V5.36282Z" fill="#2563EB"/>
<path d="M14.1032 1.16862H4.76086V5.36282H8.6533V18.4359H14.0986V9.541H18.0911V5.36282H14.1032V1.16862Z" fill="#2563EB"/>
</svg>
