<svg width="24" height="17" viewBox="0 0 24 17" fill="none" xmlns="http://www.w3.org/2000/svg">
<g clip-path="url(#clip0_2926_18473)">
<path d="M9.98736 1.83312C10.7614 1.02663 11.839 0.52643 13.0308 0.52643C14.6151 0.52643 15.9973 1.40984 16.7334 2.72129C17.373 2.4355 18.0811 2.27651 18.826 2.27651C21.6834 2.27651 24 4.61328 24 7.49566C24 10.3784 21.6834 12.7151 18.826 12.7151C18.4837 12.7153 18.1423 12.6813 17.8068 12.6136C17.1587 13.7698 15.9234 14.551 14.5057 14.551C13.9121 14.551 13.3508 14.414 12.851 14.1702C12.1939 15.7158 10.6629 16.7996 8.87863 16.7996C7.02052 16.7996 5.43692 15.6238 4.82907 13.975C4.56344 14.0314 4.28822 14.0608 4.00581 14.0608C1.79351 14.0608 0 12.2488 0 10.0133C0 8.51516 0.805814 7.2071 2.00308 6.50728C1.75659 5.94012 1.61948 5.31413 1.61948 4.65599C1.61948 2.08506 3.70667 0.000976562 6.28103 0.000976562C7.79248 0.000976562 9.13574 0.719607 9.98736 1.83312Z" fill="#00A1E0"/>
<path d="M3.47612 8.71192C3.46109 8.75125 3.4816 8.75946 3.48638 8.76629C3.5315 8.7991 3.57734 8.82272 3.62349 8.84903C3.86827 8.97892 4.0994 9.01686 4.34111 9.01686C4.83341 9.01686 5.13904 8.755 5.13904 8.33345V8.32525C5.13904 7.93549 4.79411 7.79396 4.47033 7.69174L4.42829 7.67807C4.18418 7.59874 3.97359 7.5304 3.97359 7.3697V7.36117C3.97359 7.22373 4.09666 7.12252 4.28744 7.12252C4.4994 7.12252 4.75103 7.19295 4.91307 7.28252C4.91307 7.28252 4.96059 7.31329 4.97803 7.26714C4.9876 7.24252 5.06966 7.02166 5.07821 6.99773C5.08744 6.97174 5.07103 6.95259 5.05429 6.94234C4.86933 6.82985 4.61359 6.75293 4.34899 6.75293L4.29976 6.75327C3.84917 6.75327 3.53465 7.02541 3.53465 7.41549V7.4237C3.53465 7.83497 3.88165 7.96831 4.20679 8.0613L4.25909 8.07737C4.49602 8.15019 4.70012 8.21275 4.70012 8.3796V8.38781C4.70012 8.54029 4.56749 8.65378 4.35346 8.65378C4.27038 8.65378 4.00542 8.65208 3.71927 8.4712C3.68473 8.45102 3.66457 8.43634 3.6379 8.42027C3.6239 8.41138 3.58868 8.39598 3.5733 8.44249L3.47612 8.71192ZM10.6833 8.71192C10.6682 8.75125 10.6888 8.75946 10.6935 8.76629C10.7387 8.7991 10.7845 8.82272 10.8306 8.84903C11.0754 8.97892 11.3066 9.01686 11.5482 9.01686C12.0405 9.01686 12.3462 8.755 12.3462 8.33345V8.32525C12.3462 7.93549 12.0012 7.79396 11.6775 7.69174L11.6354 7.67807C11.3913 7.59874 11.1807 7.5304 11.1807 7.3697V7.36117C11.1807 7.22373 11.3038 7.12252 11.4946 7.12252C11.7065 7.12252 11.9581 7.19295 12.1202 7.28252C12.1202 7.28252 12.1677 7.31329 12.1851 7.26714C12.1947 7.24252 12.2768 7.02166 12.2853 6.99773C12.2946 6.97174 12.2781 6.95259 12.2614 6.94234C12.0764 6.82985 11.8207 6.75293 11.5561 6.75293L11.5069 6.75327C11.0563 6.75327 10.7417 7.02541 10.7417 7.41549V7.4237C10.7417 7.83497 11.0887 7.96831 11.4139 8.0613L11.4662 8.07737C11.7031 8.15019 11.9076 8.21275 11.9076 8.3796V8.38781C11.9076 8.54029 11.7746 8.65378 11.5605 8.65378C11.4775 8.65378 11.2125 8.65208 10.9264 8.4712C10.8918 8.45102 10.8713 8.43701 10.8454 8.42027C10.8365 8.41446 10.7948 8.39838 10.7804 8.44249L10.6833 8.71192ZM15.6034 7.88622C15.6034 8.12451 15.559 8.31219 15.4715 8.44485C15.385 8.57614 15.254 8.64006 15.0715 8.64006C14.8886 8.64006 14.7583 8.57647 14.6732 8.44485C14.587 8.31255 14.5433 8.12451 14.5433 7.88622C14.5433 7.64828 14.587 7.46092 14.6732 7.32963C14.7583 7.19973 14.8886 7.13647 15.0715 7.13647C15.254 7.13647 15.385 7.19973 15.4718 7.32963C15.559 7.46089 15.6034 7.64826 15.6034 7.88622ZM16.0144 7.44451C15.974 7.30808 15.9111 7.18774 15.8274 7.08758C15.7436 6.98707 15.6376 6.9064 15.5118 6.84758C15.3863 6.78913 15.238 6.75939 15.0715 6.75939C14.9046 6.75939 14.7563 6.78913 14.6308 6.84758C14.505 6.9064 14.399 6.98709 14.3149 7.08758C14.2315 7.1881 14.1686 7.30844 14.1279 7.44451C14.0879 7.58022 14.0677 7.72859 14.0677 7.88622C14.0677 8.04384 14.0879 8.19255 14.1279 8.32792C14.1686 8.46399 14.2312 8.58435 14.3153 8.68485C14.399 8.78536 14.5053 8.8657 14.6308 8.92278C14.7566 8.97988 14.9046 9.00893 15.0715 9.00893C15.238 9.00893 15.386 8.97988 15.5118 8.92278C15.6373 8.8657 15.7436 8.78534 15.8274 8.68485C15.9112 8.58467 15.974 8.46433 16.0144 8.32792C16.0548 8.19221 16.0749 8.04348 16.0749 7.88622C16.0749 7.72895 16.0547 7.58022 16.0144 7.44451ZM19.389 8.57643C19.3753 8.53643 19.3367 8.55146 19.3367 8.55146C19.2768 8.57438 19.2132 8.59557 19.1456 8.60617C19.0768 8.61674 19.0013 8.62224 18.9202 8.62224C18.7213 8.62224 18.5633 8.56309 18.4502 8.44617C18.3367 8.32924 18.2731 8.1402 18.2737 7.88446C18.2744 7.65164 18.3305 7.47658 18.4314 7.34327C18.5315 7.21064 18.684 7.14258 18.8874 7.14258C19.057 7.14258 19.1862 7.16206 19.3216 7.2048C19.3216 7.2048 19.3541 7.2188 19.3695 7.17643C19.4053 7.07658 19.432 7.00513 19.4703 6.89539C19.4813 6.86428 19.4546 6.85095 19.445 6.84718C19.3917 6.82632 19.2659 6.7925 19.1708 6.77813C19.0819 6.76446 18.978 6.75728 18.8625 6.75728C18.6898 6.75728 18.5359 6.78668 18.4043 6.84549C18.273 6.90395 18.1616 6.98462 18.0734 7.08516C17.9852 7.18567 17.9182 7.30599 17.8734 7.44206C17.829 7.57777 17.8064 7.72684 17.8064 7.88446C17.8064 8.22531 17.8984 8.50085 18.0799 8.70258C18.2618 8.90498 18.535 9.00787 18.8912 9.00787C19.1018 9.00787 19.3179 8.96516 19.4731 8.90394C19.4731 8.90394 19.5028 8.88958 19.4898 8.85508L19.389 8.57643ZM20.108 7.65794C20.1275 7.52564 20.1641 7.41554 20.2205 7.32975C20.3056 7.19949 20.4355 7.12804 20.6181 7.12804C20.8007 7.12804 20.9213 7.19982 21.0078 7.32975C21.0653 7.41554 21.0902 7.53044 21.1001 7.65794H20.108ZM21.4916 7.36698C21.4567 7.23536 21.3702 7.10236 21.3135 7.04151C21.2239 6.9451 21.1364 6.87776 21.0495 6.84014C20.936 6.79158 20.7999 6.75946 20.6509 6.75946C20.4772 6.75946 20.3196 6.78853 20.1918 6.84869C20.0636 6.90887 19.9559 6.99094 19.8714 7.09316C19.7869 7.19502 19.7234 7.31639 19.683 7.45417C19.6423 7.59127 19.6218 7.74068 19.6218 7.89825C19.6218 8.05861 19.643 8.20802 19.6851 8.34236C19.7275 8.47776 19.7952 8.59706 19.8868 8.69585C19.9781 8.79536 20.0957 8.87331 20.2365 8.92763C20.3764 8.98166 20.5463 9.0097 20.7415 9.00934C21.1432 9.00797 21.3548 8.91841 21.442 8.87019C21.4574 8.86166 21.4721 8.84662 21.4536 8.80355L21.3627 8.54882C21.349 8.51089 21.3104 8.52489 21.3104 8.52489C21.2109 8.56182 21.0694 8.62815 20.7394 8.62748C20.5237 8.62714 20.3637 8.56355 20.2635 8.46404C20.1606 8.36218 20.1104 8.21241 20.1015 8.00115L21.4926 8.00252C21.4926 8.00252 21.5291 8.00184 21.5329 7.96626C21.5343 7.95127 21.5808 7.6805 21.4916 7.36698ZM8.9672 7.65794C8.98702 7.52564 9.02327 7.41554 9.07968 7.32975C9.1648 7.19949 9.29472 7.12804 9.47728 7.12804C9.65984 7.12804 9.78053 7.19982 9.86736 7.32975C9.92444 7.41554 9.9494 7.53044 9.95932 7.65794H8.9672ZM10.3504 7.36698C10.3156 7.23536 10.2294 7.10236 10.1727 7.04151C10.0831 6.9451 9.99557 6.87776 9.90875 6.84014C9.79524 6.79158 9.65919 6.75946 9.51012 6.75946C9.33678 6.75946 9.17883 6.78853 9.05097 6.84869C8.92278 6.90887 8.81508 6.99094 8.73063 7.09316C8.64619 7.19502 8.5826 7.31639 8.54226 7.45417C8.50193 7.59127 8.48107 7.74068 8.48107 7.89825C8.48107 8.05861 8.50226 8.20802 8.54433 8.34236C8.58673 8.47776 8.65443 8.59706 8.74603 8.69585C8.83733 8.79536 8.95492 8.87331 9.09578 8.92763C9.23562 8.98166 9.40552 9.0097 9.60074 9.00934C10.0024 9.00797 10.2141 8.91841 10.3013 8.87019C10.3167 8.86166 10.3313 8.84662 10.3129 8.80355L10.2223 8.54882C10.2083 8.51089 10.1696 8.52489 10.1696 8.52489C10.0702 8.56182 9.92895 8.62815 9.59836 8.62748C9.38298 8.62714 9.22298 8.56355 9.1228 8.46404C9.01988 8.36218 8.96965 8.21241 8.96074 8.00115L10.3518 8.00252C10.3518 8.00252 10.3884 8.00184 10.3922 7.96626C10.3935 7.95127 10.44 7.6805 10.3504 7.36698ZM5.96033 8.56881C5.90596 8.52537 5.89844 8.51444 5.87999 8.48641C5.85263 8.44367 5.83862 8.38282 5.83862 8.30555C5.83862 8.18315 5.87896 8.0953 5.96273 8.03615C5.96172 8.03651 6.08239 7.93188 6.36614 7.93563C6.56545 7.93837 6.74356 7.96778 6.74356 7.96778V8.60026H6.7439C6.7439 8.60026 6.56715 8.63819 6.36818 8.65016C6.08511 8.66726 5.9593 8.56847 5.96033 8.56881ZM6.51382 7.59137C6.45741 7.58726 6.38423 7.58486 6.29671 7.58486C6.17741 7.58486 6.06219 7.5999 5.95415 7.62897C5.84545 7.65801 5.74767 7.70351 5.66356 7.76364C5.57958 7.82359 5.51056 7.90209 5.46185 7.99305C5.41263 8.08468 5.38767 8.19271 5.38767 8.31375C5.38767 8.43682 5.40886 8.54382 5.45126 8.63137C5.49366 8.71922 5.55485 8.79238 5.63278 8.84881C5.71005 8.90522 5.80545 8.94656 5.9162 8.97152C6.02527 8.99649 6.14901 9.00912 6.28441 9.00912C6.42697 9.00912 6.56919 8.99752 6.70697 8.9739C6.84338 8.95065 7.0109 8.9168 7.05739 8.90623C7.08998 8.89837 7.12247 8.89005 7.15483 8.88127C7.18937 8.87274 7.18663 8.83579 7.18663 8.83579L7.18594 7.56367C7.18594 7.28468 7.11142 7.07783 6.96475 6.94964C6.81875 6.82178 6.60372 6.75713 6.32578 6.75713C6.22149 6.75713 6.05364 6.77152 5.95312 6.79168C5.95312 6.79168 5.64919 6.85049 5.52405 6.94827C5.52405 6.94827 5.49671 6.96537 5.51175 7.00367L5.61023 7.26829C5.62253 7.30248 5.6557 7.29085 5.6557 7.29085C5.6557 7.29085 5.6663 7.28674 5.67862 7.27956C5.94632 7.13393 6.28477 7.13837 6.28477 7.13837C6.43521 7.13837 6.55077 7.16845 6.6287 7.22827C6.70459 7.28638 6.74322 7.37424 6.74322 7.55954V7.61835C6.62356 7.60127 6.51382 7.59137 6.51382 7.59137ZM17.7337 6.87459C17.7443 6.84312 17.7221 6.82808 17.7129 6.82467C17.6893 6.81544 17.571 6.79048 17.4797 6.78467C17.305 6.77407 17.2079 6.80348 17.1211 6.84244C17.0349 6.88141 16.9392 6.94431 16.8859 7.01578V6.84655C16.8859 6.82296 16.8691 6.80415 16.8459 6.80415H16.4893C16.466 6.80415 16.4493 6.82294 16.4493 6.84655V8.92141C16.4493 8.94467 16.4684 8.96381 16.4917 8.96381H16.8571C16.8683 8.96375 16.879 8.95925 16.8869 8.9513C16.8948 8.94335 16.8992 8.9326 16.8992 8.92141V7.88485C16.8992 7.7457 16.9146 7.60691 16.9454 7.51973C16.9754 7.43355 17.0165 7.36451 17.0671 7.31492C17.118 7.2657 17.1758 7.23118 17.239 7.21169C17.3036 7.19185 17.3751 7.18536 17.4257 7.18536C17.4985 7.18536 17.5785 7.20415 17.5785 7.20415C17.6052 7.20722 17.6202 7.19082 17.6291 7.16655C17.653 7.10296 17.7207 6.91252 17.7337 6.87459Z" fill="white"/>
<path d="M14.3032 5.91339C14.2588 5.89972 14.2184 5.89048 14.1658 5.88058C14.1124 5.87102 14.0489 5.86621 13.9767 5.86621C13.7251 5.86621 13.5268 5.93732 13.3877 6.07748C13.2492 6.21699 13.1552 6.42929 13.108 6.70861L13.0909 6.80262H12.775C12.775 6.80262 12.7367 6.80125 12.7285 6.84298L12.6769 7.13254C12.6731 7.1599 12.6851 7.17732 12.722 7.17732H13.0294L12.7176 8.91817C12.6933 9.05835 12.6652 9.17357 12.6341 9.26107C12.6037 9.34724 12.574 9.41184 12.537 9.45903C12.5015 9.50417 12.468 9.53766 12.4098 9.55714C12.362 9.57321 12.3066 9.58073 12.2461 9.58073C12.2126 9.58073 12.1678 9.57523 12.1346 9.56841C12.1018 9.5619 12.0844 9.55474 12.0594 9.54412C12.0594 9.54412 12.0235 9.53047 12.0092 9.56637C11.9979 9.59611 11.9158 9.82138 11.9059 9.84911C11.8964 9.87678 11.91 9.89833 11.9274 9.90482C11.9685 9.91918 11.9989 9.92875 12.0546 9.94208C12.1319 9.96022 12.1972 9.96123 12.2584 9.96123C12.3862 9.96123 12.5032 9.94311 12.5999 9.90825C12.697 9.87303 12.7818 9.81182 12.857 9.72911C12.938 9.63952 12.989 9.54585 13.0375 9.41766C13.0857 9.29115 13.1271 9.13389 13.1599 8.95065L13.4734 7.17732H13.9315C13.9315 7.17732 13.9702 7.17869 13.9781 7.13665L14.03 6.84742C14.0334 6.81975 14.0218 6.80264 13.9845 6.80264H13.5397C13.5421 6.79275 13.5623 6.63613 13.6133 6.48882C13.6351 6.42626 13.6761 6.3753 13.7107 6.34042C13.7449 6.30623 13.7842 6.28197 13.8273 6.26794C13.8714 6.25357 13.9217 6.24675 13.9767 6.24675C14.0184 6.24675 14.0598 6.25153 14.0909 6.25802C14.1339 6.26727 14.1507 6.27205 14.162 6.27548C14.2075 6.28915 14.2136 6.27582 14.2225 6.25396L14.3289 5.96199C14.3398 5.93048 14.3128 5.91714 14.3032 5.91339ZM8.08869 8.92195C8.08869 8.9452 8.07194 8.96401 8.04869 8.96401H7.6798C7.65655 8.96401 7.64014 8.9452 7.64014 8.92195V5.95306C7.64014 5.92983 7.65655 5.91102 7.6798 5.91102H8.04869C8.07194 5.91102 8.08869 5.92983 8.08869 5.95306V8.92195Z" fill="white"/>
</g>
<defs>
<clipPath id="clip0_2926_18473">
<rect width="24" height="16.8" fill="white"/>
</clipPath>
</defs>
</svg>
